<svg width="24" height="24" viewBox="0 0 24 24" fill="none" xmlns="http://www.w3.org/2000/svg">
<path d="M10.5 15L10.5 12" stroke="#FC8888" stroke-width="1.5" stroke-linecap="round"/>
<path d="M13.5 15L13.5 12" stroke="#FC8888" stroke-width="1.5" stroke-linecap="round"/>
<path d="M4.5 8H19.5V8C19.0353 8 18.803 8 18.6098 8.03843C17.8164 8.19624 17.1962 8.81644 17.0384 9.60982C17 9.80302 17 10.0353 17 10.5V15C17 16.8856 17 17.8284 16.4142 18.4142C15.8284 19 14.8856 19 13 19H11C9.11438 19 8.17157 19 7.58579 18.4142C7 17.8284 7 16.8856 7 15V10.5C7 10.0353 7 9.80302 6.96157 9.60982C6.80376 8.81644 6.18356 8.19624 5.39018 8.03843C5.19698 8 4.96466 8 4.5 8V8Z" stroke="#FC8888" stroke-width="1.5" stroke-linecap="round"/>
<path d="M10.0681 4.37059C10.1821 4.26427 10.4332 4.17033 10.7825 4.10332C11.1318 4.03632 11.5597 4 12 4C12.4403 4 12.8682 4.03632 13.2175 4.10332C13.5668 4.17033 13.8179 4.26427 13.9319 4.37059" stroke="#FC8888" stroke-width="1.5" stroke-linecap="round"/>
</svg>
