<svg width="32" height="33" viewBox="0 0 32 33" fill="none" xmlns="http://www.w3.org/2000/svg">
<path fill-rule="evenodd" clip-rule="evenodd" d="M28 14.0732C27.2181 14.3496 26.3766 14.5 25.5 14.5C21.3579 14.5 18 11.1421 18 7C18 6.12341 18.1504 5.28195 18.4268 4.5H9C4.58172 4.5 1 8.08172 1 12.5V23.5C1 27.9183 4.58172 31.5 9 31.5H20C24.4183 31.5 28 27.9183 28 23.5V14.0732Z" fill="#D1D7DD"/>
<path fill-rule="evenodd" clip-rule="evenodd" d="M25.5 12.5C28.5376 12.5 31 10.0376 31 7C31 3.96243 28.5376 1.5 25.5 1.5C22.4624 1.5 20 3.96243 20 7C20 10.0376 22.4624 12.5 25.5 12.5ZM27.6188 9.1586C27.7969 8.97871 27.7969 8.68707 27.6188 8.50718L26.1446 7.01818L27.6553 5.49237C27.8334 5.31248 27.8334 5.02083 27.6553 4.84095C27.4772 4.66107 27.1884 4.66107 27.0103 4.84095L25.4997 6.36677L23.9891 4.84095C23.811 4.66107 23.5222 4.66107 23.3441 4.84095C23.166 5.02083 23.166 5.31248 23.3441 5.49237L24.8548 7.01818L23.3806 8.50718C23.2025 8.68707 23.2025 8.97871 23.3806 9.1586C23.5587 9.33848 23.8474 9.33848 24.0255 9.1586L25.4997 7.6696L26.9739 9.1586C27.152 9.33848 27.4407 9.33848 27.6188 9.1586Z" fill="#D1D7DD"/>
<path d="M14.4911 11.5C14.8006 11.5 15.0685 11.5664 15.2946 11.6992C15.5208 11.832 15.7173 12.092 15.8839 12.4794L19.9018 22.1069C20.0327 22.4279 20.0327 22.7045 19.9018 22.9369C19.7708 23.1693 19.5565 23.3298 19.2589 23.4183C18.9613 23.5068 18.6637 23.5179 18.3661 23.4515C18.0804 23.3851 17.872 23.1748 17.7411 22.8207L16.7054 20.1648H12.2054L11.1518 22.8871C11.0208 23.208 10.8185 23.4017 10.5446 23.4681C10.2827 23.5234 10.0089 23.5068 9.72321 23.4183C9.4375 23.3298 9.22917 23.1804 9.09821 22.9701C8.96726 22.7598 8.96726 22.4998 9.09821 22.1899L13.1161 12.4794C13.2708 12.092 13.4613 11.832 13.6875 11.6992C13.9256 11.5664 14.1935 11.5 14.4911 11.5ZM14.4554 14.1559C14.3601 14.4879 14.2649 14.7867 14.1696 15.0522C14.0863 15.3068 13.9732 15.6222 13.8304 15.9984L12.8839 18.4053H16.0268L15.0982 15.9984C14.9435 15.6111 14.8185 15.2791 14.7232 15.0024C14.6399 14.7258 14.5506 14.4436 14.4554 14.1559Z" fill="#A1ABB5"/>
<circle cx="25.5" cy="7" r="5.5" fill="#D1D7DD"/>
<path d="M23 4.5L28 9.5" stroke="#A1ABB5" stroke-width="1.3" stroke-linecap="round"/>
<path d="M28 4.5L23 9.5" stroke="#A1ABB5" stroke-width="1.3" stroke-linecap="round"/>
</svg>
