<svg width="24" height="18" viewBox="0 0 24 18" fill="none" xmlns="http://www.w3.org/2000/svg">
<path d="M0 3.22C0 2.08102 0 1.51153 0.225173 1.07805C0.414924 0.712765 0.712765 0.414924 1.07805 0.225173C1.51153 0 2.08102 0 3.22 0H7.78138C7.94831 0 8.03177 0 8.11213 0.00648919C8.52432 0.0397743 8.91606 0.20001 9.23342 0.465138C9.29529 0.516826 9.35483 0.57532 9.4739 0.692308C9.59298 0.809295 9.65252 0.867789 9.71439 0.919478C10.0317 1.18461 10.4235 1.34484 10.8357 1.37813C10.916 1.38462 10.9995 1.38462 11.1664 1.38462H15.78C16.919 1.38462 17.4885 1.38462 17.9219 1.60979C18.2872 1.79954 18.5851 2.09738 18.7748 2.46267C19 2.89614 19 3.46563 19 4.60462V14.78C19 15.919 19 16.4885 18.7748 16.9219C18.5851 17.2872 18.2872 17.5851 17.9219 17.7748C17.4885 18 16.919 18 15.78 18H3.22C2.08102 18 1.51153 18 1.07805 17.7748C0.712765 17.5851 0.414924 17.2872 0.225173 16.9219C0 16.4885 0 15.919 0 14.78V3.22Z" fill="url(#paint0_linear_733_3574)"/>
<g filter="url(#filter0_b_733_3574)">
<path d="M5.10788 8.58742C5.62049 6.8581 5.87679 5.99344 6.54212 5.49672C7.20744 5 8.10791 5 9.90884 5H19.9556C21.807 5 22.7328 5 23.1825 5.60636C23.6323 6.21273 23.3637 7.09863 22.8265 8.87044L20.9194 15.1606C20.5047 16.5286 20.2973 17.2127 19.7665 17.6063C19.2358 18 18.521 18 17.0915 18H2C2.71851 17.2303 2.71851 16.4605 3.43702 14.1513C3.80362 12.9731 4.50691 10.6148 5.10788 8.58742Z" fill="#72C0FD" fill-opacity="0.7"/>
<path d="M5.25769 8.63182C5.51504 7.76364 5.70448 7.1254 5.91141 6.64126C6.11674 6.16084 6.33312 5.84775 6.6356 5.62193C6.93811 5.39608 7.29946 5.27762 7.81769 5.21729C8.33998 5.1565 9.00469 5.15625 9.90884 5.15625H19.9556C20.8863 5.15625 21.567 5.15665 22.0721 5.23041C22.5734 5.30361 22.8681 5.44475 23.057 5.69945C23.246 5.95415 23.2955 6.2771 23.2201 6.7781C23.1442 7.28291 22.947 7.93441 22.677 8.8251L20.7699 15.1153C20.5614 15.8028 20.4087 16.3056 20.2432 16.6866C20.0792 17.0638 19.9088 17.3063 19.6735 17.4808C19.4381 17.6554 19.1566 17.7481 18.7481 17.7956C18.3354 17.8435 17.8099 17.8438 17.0915 17.8438H2.33348C2.57585 17.5154 2.72346 17.163 2.8677 16.6994C2.94299 16.4574 3.01828 16.182 3.10546 15.8632C3.12346 15.7973 3.14196 15.7296 3.16108 15.66C3.27315 15.2518 3.40734 14.7726 3.58621 14.1977C3.95319 13.0183 4.65681 10.659 5.25769 8.63182Z" stroke="url(#paint1_linear_733_3574)" stroke-width="0.3125"/>
</g>
<path d="M3.125 2.9C3.125 2.74812 3.24812 2.625 3.4 2.625H6.6C6.75188 2.625 6.875 2.74812 6.875 2.9C6.875 3.05188 6.75188 3.175 6.6 3.175H3.4C3.24812 3.175 3.125 3.05188 3.125 2.9Z" fill="url(#paint2_linear_733_3574)" fill-opacity="0.9" stroke="url(#paint3_linear_733_3574)" stroke-width="1.25"/>
<defs>
<filter id="filter0_b_733_3574" x="0" y="3" width="25.4101" height="17" filterUnits="userSpaceOnUse" color-interpolation-filters="sRGB">
<feFlood flood-opacity="0" result="BackgroundImageFix"/>
<feGaussianBlur in="BackgroundImage" stdDeviation="1"/>
<feComposite in2="SourceAlpha" operator="in" result="effect1_backgroundBlur_733_3574"/>
<feBlend mode="normal" in="SourceGraphic" in2="effect1_backgroundBlur_733_3574" result="shape"/>
</filter>
<linearGradient id="paint0_linear_733_3574" x1="-0.0183118" y1="0.496216" x2="21.4526" y2="9.15649" gradientUnits="userSpaceOnUse">
<stop stop-color="#56A0DB"/>
<stop offset="1" stop-color="#72C0FD"/>
</linearGradient>
<linearGradient id="paint1_linear_733_3574" x1="0.9" y1="5.92857" x2="7.80083" y2="23.7646" gradientUnits="userSpaceOnUse">
<stop stop-color="white"/>
<stop offset="0.765625" stop-color="white" stop-opacity="0"/>
</linearGradient>
<linearGradient id="paint2_linear_733_3574" x1="2.11999" y1="1.87972" x2="9.0425" y2="3.77351" gradientUnits="userSpaceOnUse">
<stop stop-color="white"/>
<stop offset="1" stop-color="white" stop-opacity="0"/>
</linearGradient>
<linearGradient id="paint3_linear_733_3574" x1="1.65341" y1="2.38363" x2="5.06479" y2="3.62145" gradientUnits="userSpaceOnUse">
<stop stop-color="white"/>
<stop offset="1" stop-color="white" stop-opacity="0"/>
</linearGradient>
</defs>
</svg>
