<svg width="226" height="54" viewBox="0 0 226 54" fill="none" xmlns="http://www.w3.org/2000/svg">
<rect width="25.9142" height="25.6042" rx="8" transform="matrix(1 0 -0.00798455 0.999968 8.20459 3.5)" fill="url(#paint0_linear_809_3190)"/>
<rect width="6.65971" height="6.57738" rx="3.28869" transform="matrix(0.966832 -0.255414 0.239427 0.970914 29.7017 28.0629)" fill="url(#paint1_linear_809_3190)"/>
<g filter="url(#filter0_bdi_809_3190)">
<rect x="14.46" y="9.91345" width="25.5401" height="25.5866" rx="8" fill="white" fill-opacity="0.05" shape-rendering="crispEdges"/>
<rect x="14.46" y="9.91345" width="25.5401" height="25.5866" rx="8" fill="url(#paint2_linear_809_3190)" fill-opacity="0.1" shape-rendering="crispEdges"/>
</g>
<g filter="url(#filter1_di_809_3190)">
<path fill-rule="evenodd" clip-rule="evenodd" d="M22.5747 16.3322C22.5665 16.3321 22.5581 16.332 22.5498 16.332C21.45 16.332 20.5584 17.2236 20.5584 18.3234L20.5584 18.3242C20.5582 18.3367 20.5581 18.3493 20.5581 18.3619C20.5581 18.3745 20.5582 18.387 20.5584 18.3995L20.5584 27.1967C20.5584 28.2965 21.45 29.188 22.5498 29.188C23.6496 29.188 24.5412 28.2965 24.5412 27.1967L24.5412 23.4002L30.2562 28.6552C31.084 29.4164 32.3766 29.3666 33.1434 28.544C33.9102 27.7214 33.8607 26.4375 33.0329 25.6764L27.2855 20.3916H30.5176C31.6385 20.3916 32.5473 19.4829 32.5473 18.3619C32.5473 17.2409 31.6386 16.3321 30.5176 16.3321L22.5878 16.3321C22.5835 16.3321 22.5791 16.3322 22.5747 16.3322Z" fill="white" fill-opacity="0.4" shape-rendering="crispEdges"/>
<path fill-rule="evenodd" clip-rule="evenodd" d="M22.5747 16.3322C22.5665 16.3321 22.5581 16.332 22.5498 16.332C21.45 16.332 20.5584 17.2236 20.5584 18.3234L20.5584 18.3242C20.5582 18.3367 20.5581 18.3493 20.5581 18.3619C20.5581 18.3745 20.5582 18.387 20.5584 18.3995L20.5584 27.1967C20.5584 28.2965 21.45 29.188 22.5498 29.188C23.6496 29.188 24.5412 28.2965 24.5412 27.1967L24.5412 23.4002L30.2562 28.6552C31.084 29.4164 32.3766 29.3666 33.1434 28.544C33.9102 27.7214 33.8607 26.4375 33.0329 25.6764L27.2855 20.3916H30.5176C31.6385 20.3916 32.5473 19.4829 32.5473 18.3619C32.5473 17.2409 31.6386 16.3321 30.5176 16.3321L22.5878 16.3321C22.5835 16.3321 22.5791 16.3322 22.5747 16.3322Z" fill="url(#paint3_linear_809_3190)" fill-opacity="0.8" shape-rendering="crispEdges"/>
</g>
<g filter="url(#filter2_di_809_3190)">
<path d="M76.5018 27.5V25.076L76.1898 24.476V20.012C76.1898 19.292 75.9658 18.74 75.5178 18.356C75.0858 17.956 74.3898 17.756 73.4297 17.756C72.8058 17.756 72.1738 17.86 71.5338 18.068C70.8938 18.26 70.3498 18.532 69.9018 18.884L68.3658 15.788C69.1018 15.308 69.9818 14.94 71.0058 14.684C72.0458 14.412 73.0778 14.276 74.1018 14.276C76.2138 14.276 77.8458 14.764 78.9978 15.74C80.1658 16.7 80.7498 18.212 80.7498 20.276V27.5H76.5018ZM72.6618 27.716C71.6218 27.716 70.7418 27.54 70.0218 27.188C69.3018 26.836 68.7498 26.356 68.3658 25.748C67.9978 25.14 67.8138 24.46 67.8138 23.708C67.8138 22.908 68.0138 22.22 68.4138 21.644C68.8298 21.052 69.4618 20.604 70.3098 20.3C71.1578 19.98 72.2538 19.82 73.5978 19.82H76.6698V22.196H74.2218C73.4858 22.196 72.9658 22.316 72.6618 22.556C72.3738 22.796 72.2298 23.116 72.2298 23.516C72.2298 23.916 72.3818 24.236 72.6858 24.476C72.9898 24.716 73.4058 24.836 73.9338 24.836C74.4298 24.836 74.8778 24.716 75.2778 24.476C75.6938 24.22 75.9978 23.836 76.1898 23.324L76.8138 25.004C76.5738 25.9 76.1018 26.58 75.3978 27.044C74.7098 27.492 73.7978 27.716 72.6618 27.716ZM92.1001 14.276C93.1081 14.276 94.0201 14.484 94.8361 14.9C95.6521 15.3 96.2921 15.924 96.7561 16.772C97.2361 17.62 97.4761 18.716 97.4761 20.06V27.5H92.9161V20.804C92.9161 19.876 92.7241 19.204 92.3401 18.788C91.9721 18.356 91.4521 18.14 90.7801 18.14C90.3001 18.14 89.8601 18.252 89.4601 18.476C89.0601 18.684 88.7481 19.012 88.5241 19.46C88.3001 19.908 88.1881 20.492 88.1881 21.212V27.5H83.6281V14.492H87.9721V18.188L87.1321 17.108C87.6281 16.164 88.3081 15.46 89.1721 14.996C90.0361 14.516 91.0121 14.276 92.1001 14.276ZM107.151 27.716C105.711 27.716 104.423 27.428 103.287 26.852C102.167 26.276 101.287 25.484 100.647 24.476C100.007 23.452 99.6871 22.284 99.6871 20.972C99.6871 19.66 100.007 18.5 100.647 17.492C101.287 16.484 102.167 15.7 103.287 15.14C104.423 14.564 105.711 14.276 107.151 14.276C108.623 14.276 109.895 14.588 110.967 15.212C112.039 15.836 112.799 16.716 113.247 17.852L109.719 19.652C109.415 19.044 109.039 18.604 108.591 18.332C108.143 18.044 107.655 17.9 107.127 17.9C106.599 17.9 106.119 18.02 105.687 18.26C105.255 18.5 104.911 18.852 104.655 19.316C104.415 19.764 104.295 20.316 104.295 20.972C104.295 21.644 104.415 22.212 104.655 22.676C104.911 23.14 105.255 23.492 105.687 23.732C106.119 23.972 106.599 24.092 107.127 24.092C107.655 24.092 108.143 23.956 108.591 23.684C109.039 23.396 109.415 22.948 109.719 22.34L113.247 24.14C112.799 25.276 112.039 26.156 110.967 26.78C109.895 27.404 108.623 27.716 107.151 27.716ZM116.962 32.372C116.274 32.372 115.578 32.26 114.874 32.036C114.186 31.828 113.626 31.548 113.194 31.196L114.778 28.004C115.05 28.244 115.362 28.428 115.714 28.556C116.082 28.7 116.442 28.772 116.794 28.772C117.29 28.772 117.682 28.66 117.97 28.436C118.258 28.212 118.506 27.86 118.714 27.38L119.314 25.868L119.674 25.412L124.09 14.492H128.434L122.818 28.028C122.37 29.148 121.85 30.02 121.258 30.644C120.682 31.284 120.034 31.732 119.314 31.988C118.61 32.244 117.826 32.372 116.962 32.372ZM118.738 28.052L113.002 14.492H117.682L121.906 25.004L118.738 28.052Z" fill="white"/>
<path d="M76.5018 27.5V25.076L76.1898 24.476V20.012C76.1898 19.292 75.9658 18.74 75.5178 18.356C75.0858 17.956 74.3898 17.756 73.4297 17.756C72.8058 17.756 72.1738 17.86 71.5338 18.068C70.8938 18.26 70.3498 18.532 69.9018 18.884L68.3658 15.788C69.1018 15.308 69.9818 14.94 71.0058 14.684C72.0458 14.412 73.0778 14.276 74.1018 14.276C76.2138 14.276 77.8458 14.764 78.9978 15.74C80.1658 16.7 80.7498 18.212 80.7498 20.276V27.5H76.5018ZM72.6618 27.716C71.6218 27.716 70.7418 27.54 70.0218 27.188C69.3018 26.836 68.7498 26.356 68.3658 25.748C67.9978 25.14 67.8138 24.46 67.8138 23.708C67.8138 22.908 68.0138 22.22 68.4138 21.644C68.8298 21.052 69.4618 20.604 70.3098 20.3C71.1578 19.98 72.2538 19.82 73.5978 19.82H76.6698V22.196H74.2218C73.4858 22.196 72.9658 22.316 72.6618 22.556C72.3738 22.796 72.2298 23.116 72.2298 23.516C72.2298 23.916 72.3818 24.236 72.6858 24.476C72.9898 24.716 73.4058 24.836 73.9338 24.836C74.4298 24.836 74.8778 24.716 75.2778 24.476C75.6938 24.22 75.9978 23.836 76.1898 23.324L76.8138 25.004C76.5738 25.9 76.1018 26.58 75.3978 27.044C74.7098 27.492 73.7978 27.716 72.6618 27.716ZM92.1001 14.276C93.1081 14.276 94.0201 14.484 94.8361 14.9C95.6521 15.3 96.2921 15.924 96.7561 16.772C97.2361 17.62 97.4761 18.716 97.4761 20.06V27.5H92.9161V20.804C92.9161 19.876 92.7241 19.204 92.3401 18.788C91.9721 18.356 91.4521 18.14 90.7801 18.14C90.3001 18.14 89.8601 18.252 89.4601 18.476C89.0601 18.684 88.7481 19.012 88.5241 19.46C88.3001 19.908 88.1881 20.492 88.1881 21.212V27.5H83.6281V14.492H87.9721V18.188L87.1321 17.108C87.6281 16.164 88.3081 15.46 89.1721 14.996C90.0361 14.516 91.0121 14.276 92.1001 14.276ZM107.151 27.716C105.711 27.716 104.423 27.428 103.287 26.852C102.167 26.276 101.287 25.484 100.647 24.476C100.007 23.452 99.6871 22.284 99.6871 20.972C99.6871 19.66 100.007 18.5 100.647 17.492C101.287 16.484 102.167 15.7 103.287 15.14C104.423 14.564 105.711 14.276 107.151 14.276C108.623 14.276 109.895 14.588 110.967 15.212C112.039 15.836 112.799 16.716 113.247 17.852L109.719 19.652C109.415 19.044 109.039 18.604 108.591 18.332C108.143 18.044 107.655 17.9 107.127 17.9C106.599 17.9 106.119 18.02 105.687 18.26C105.255 18.5 104.911 18.852 104.655 19.316C104.415 19.764 104.295 20.316 104.295 20.972C104.295 21.644 104.415 22.212 104.655 22.676C104.911 23.14 105.255 23.492 105.687 23.732C106.119 23.972 106.599 24.092 107.127 24.092C107.655 24.092 108.143 23.956 108.591 23.684C109.039 23.396 109.415 22.948 109.719 22.34L113.247 24.14C112.799 25.276 112.039 26.156 110.967 26.78C109.895 27.404 108.623 27.716 107.151 27.716ZM116.962 32.372C116.274 32.372 115.578 32.26 114.874 32.036C114.186 31.828 113.626 31.548 113.194 31.196L114.778 28.004C115.05 28.244 115.362 28.428 115.714 28.556C116.082 28.7 116.442 28.772 116.794 28.772C117.29 28.772 117.682 28.66 117.97 28.436C118.258 28.212 118.506 27.86 118.714 27.38L119.314 25.868L119.674 25.412L124.09 14.492H128.434L122.818 28.028C122.37 29.148 121.85 30.02 121.258 30.644C120.682 31.284 120.034 31.732 119.314 31.988C118.61 32.244 117.826 32.372 116.962 32.372ZM118.738 28.052L113.002 14.492H117.682L121.906 25.004L118.738 28.052Z" fill="url(#paint4_linear_809_3190)" fill-opacity="0.4"/>
</g>
<g filter="url(#filter3_di_809_3190)">
<path d="M169.086 27.716C167.662 27.716 166.398 27.428 165.294 26.852C164.19 26.276 163.318 25.484 162.678 24.476C162.054 23.452 161.742 22.284 161.742 20.972C161.742 19.66 162.054 18.5 162.678 17.492C163.318 16.484 164.19 15.7 165.294 15.14C166.398 14.564 167.662 14.276 169.086 14.276C170.51 14.276 171.774 14.564 172.878 15.14C173.998 15.7 174.87 16.484 175.494 17.492C176.118 18.5 176.43 19.66 176.43 20.972C176.43 22.284 176.118 23.452 175.494 24.476C174.87 25.484 173.998 26.276 172.878 26.852C171.774 27.428 170.51 27.716 169.086 27.716ZM169.086 24.092C169.614 24.092 170.078 23.972 170.478 23.732C170.894 23.492 171.222 23.14 171.462 22.676C171.702 22.196 171.822 21.628 171.822 20.972C171.822 20.316 171.702 19.764 171.462 19.316C171.222 18.852 170.894 18.5 170.478 18.26C170.078 18.02 169.614 17.9 169.086 17.9C168.574 17.9 168.11 18.02 167.694 18.26C167.294 18.5 166.966 18.852 166.71 19.316C166.47 19.764 166.35 20.316 166.35 20.972C166.35 21.628 166.47 22.196 166.71 22.676C166.966 23.14 167.294 23.492 167.694 23.732C168.11 23.972 168.574 24.092 169.086 24.092ZM184.014 27.716C182.958 27.716 182.006 27.508 181.158 27.092C180.326 26.676 179.67 26.028 179.19 25.148C178.726 24.252 178.494 23.124 178.494 21.764V14.492H183.054V21.02C183.054 22.028 183.238 22.748 183.606 23.18C183.99 23.612 184.526 23.828 185.214 23.828C185.662 23.828 186.07 23.724 186.438 23.516C186.806 23.308 187.102 22.98 187.326 22.532C187.55 22.068 187.662 21.476 187.662 20.756V14.492H192.222V27.5H187.878V23.828L188.718 24.86C188.27 25.82 187.622 26.54 186.774 27.02C185.926 27.484 185.006 27.716 184.014 27.716ZM199.887 27.716C198.783 27.716 197.703 27.588 196.647 27.332C195.607 27.076 194.767 26.756 194.127 26.372L195.495 23.252C196.103 23.62 196.815 23.916 197.631 24.14C198.447 24.348 199.247 24.452 200.031 24.452C200.799 24.452 201.327 24.372 201.615 24.212C201.919 24.052 202.071 23.836 202.071 23.564C202.071 23.308 201.927 23.124 201.639 23.012C201.367 22.884 200.999 22.788 200.535 22.724C200.087 22.66 199.591 22.588 199.047 22.508C198.503 22.428 197.951 22.324 197.391 22.196C196.847 22.052 196.343 21.844 195.879 21.572C195.431 21.284 195.071 20.9 194.799 20.42C194.527 19.94 194.391 19.332 194.391 18.596C194.391 17.764 194.631 17.028 195.111 16.388C195.607 15.732 196.327 15.22 197.271 14.852C198.215 14.468 199.367 14.276 200.727 14.276C201.639 14.276 202.559 14.372 203.487 14.564C204.431 14.74 205.223 15.012 205.863 15.38L204.495 18.476C203.855 18.108 203.215 17.86 202.575 17.732C201.935 17.588 201.327 17.516 200.751 17.516C199.983 17.516 199.439 17.604 199.119 17.78C198.815 17.956 198.663 18.172 198.663 18.428C198.663 18.684 198.799 18.884 199.071 19.028C199.343 19.156 199.703 19.26 200.151 19.34C200.615 19.404 201.119 19.476 201.663 19.556C202.207 19.62 202.751 19.724 203.295 19.868C203.855 20.012 204.359 20.228 204.807 20.516C205.271 20.788 205.639 21.164 205.911 21.644C206.183 22.108 206.319 22.708 206.319 23.444C206.319 24.244 206.071 24.964 205.575 25.604C205.095 26.244 204.375 26.756 203.415 27.14C202.471 27.524 201.295 27.716 199.887 27.716ZM215.1 27.716C213.564 27.716 212.22 27.428 211.068 26.852C209.932 26.26 209.044 25.46 208.404 24.452C207.78 23.428 207.468 22.268 207.468 20.972C207.468 19.676 207.772 18.524 208.38 17.516C209.004 16.492 209.86 15.7 210.948 15.14C212.036 14.564 213.26 14.276 214.62 14.276C215.9 14.276 217.068 14.54 218.124 15.068C219.18 15.58 220.02 16.34 220.644 17.348C221.268 18.356 221.58 19.58 221.58 21.02C221.58 21.18 221.572 21.364 221.556 21.572C221.54 21.78 221.524 21.972 221.508 22.148H211.212V19.748H219.084L217.356 20.42C217.372 19.828 217.26 19.316 217.02 18.884C216.796 18.452 216.476 18.116 216.06 17.876C215.66 17.636 215.188 17.516 214.644 17.516C214.1 17.516 213.62 17.636 213.204 17.876C212.804 18.116 212.492 18.46 212.268 18.908C212.044 19.34 211.932 19.852 211.932 20.444V21.14C211.932 21.78 212.06 22.332 212.316 22.796C212.588 23.26 212.972 23.62 213.468 23.876C213.964 24.116 214.556 24.236 215.244 24.236C215.884 24.236 216.428 24.148 216.876 23.972C217.34 23.78 217.796 23.492 218.244 23.108L220.644 25.604C220.02 26.292 219.252 26.82 218.34 27.188C217.428 27.54 216.348 27.716 215.1 27.716Z" fill="white"/>
<path d="M169.086 27.716C167.662 27.716 166.398 27.428 165.294 26.852C164.19 26.276 163.318 25.484 162.678 24.476C162.054 23.452 161.742 22.284 161.742 20.972C161.742 19.66 162.054 18.5 162.678 17.492C163.318 16.484 164.19 15.7 165.294 15.14C166.398 14.564 167.662 14.276 169.086 14.276C170.51 14.276 171.774 14.564 172.878 15.14C173.998 15.7 174.87 16.484 175.494 17.492C176.118 18.5 176.43 19.66 176.43 20.972C176.43 22.284 176.118 23.452 175.494 24.476C174.87 25.484 173.998 26.276 172.878 26.852C171.774 27.428 170.51 27.716 169.086 27.716ZM169.086 24.092C169.614 24.092 170.078 23.972 170.478 23.732C170.894 23.492 171.222 23.14 171.462 22.676C171.702 22.196 171.822 21.628 171.822 20.972C171.822 20.316 171.702 19.764 171.462 19.316C171.222 18.852 170.894 18.5 170.478 18.26C170.078 18.02 169.614 17.9 169.086 17.9C168.574 17.9 168.11 18.02 167.694 18.26C167.294 18.5 166.966 18.852 166.71 19.316C166.47 19.764 166.35 20.316 166.35 20.972C166.35 21.628 166.47 22.196 166.71 22.676C166.966 23.14 167.294 23.492 167.694 23.732C168.11 23.972 168.574 24.092 169.086 24.092ZM184.014 27.716C182.958 27.716 182.006 27.508 181.158 27.092C180.326 26.676 179.67 26.028 179.19 25.148C178.726 24.252 178.494 23.124 178.494 21.764V14.492H183.054V21.02C183.054 22.028 183.238 22.748 183.606 23.18C183.99 23.612 184.526 23.828 185.214 23.828C185.662 23.828 186.07 23.724 186.438 23.516C186.806 23.308 187.102 22.98 187.326 22.532C187.55 22.068 187.662 21.476 187.662 20.756V14.492H192.222V27.5H187.878V23.828L188.718 24.86C188.27 25.82 187.622 26.54 186.774 27.02C185.926 27.484 185.006 27.716 184.014 27.716ZM199.887 27.716C198.783 27.716 197.703 27.588 196.647 27.332C195.607 27.076 194.767 26.756 194.127 26.372L195.495 23.252C196.103 23.62 196.815 23.916 197.631 24.14C198.447 24.348 199.247 24.452 200.031 24.452C200.799 24.452 201.327 24.372 201.615 24.212C201.919 24.052 202.071 23.836 202.071 23.564C202.071 23.308 201.927 23.124 201.639 23.012C201.367 22.884 200.999 22.788 200.535 22.724C200.087 22.66 199.591 22.588 199.047 22.508C198.503 22.428 197.951 22.324 197.391 22.196C196.847 22.052 196.343 21.844 195.879 21.572C195.431 21.284 195.071 20.9 194.799 20.42C194.527 19.94 194.391 19.332 194.391 18.596C194.391 17.764 194.631 17.028 195.111 16.388C195.607 15.732 196.327 15.22 197.271 14.852C198.215 14.468 199.367 14.276 200.727 14.276C201.639 14.276 202.559 14.372 203.487 14.564C204.431 14.74 205.223 15.012 205.863 15.38L204.495 18.476C203.855 18.108 203.215 17.86 202.575 17.732C201.935 17.588 201.327 17.516 200.751 17.516C199.983 17.516 199.439 17.604 199.119 17.78C198.815 17.956 198.663 18.172 198.663 18.428C198.663 18.684 198.799 18.884 199.071 19.028C199.343 19.156 199.703 19.26 200.151 19.34C200.615 19.404 201.119 19.476 201.663 19.556C202.207 19.62 202.751 19.724 203.295 19.868C203.855 20.012 204.359 20.228 204.807 20.516C205.271 20.788 205.639 21.164 205.911 21.644C206.183 22.108 206.319 22.708 206.319 23.444C206.319 24.244 206.071 24.964 205.575 25.604C205.095 26.244 204.375 26.756 203.415 27.14C202.471 27.524 201.295 27.716 199.887 27.716ZM215.1 27.716C213.564 27.716 212.22 27.428 211.068 26.852C209.932 26.26 209.044 25.46 208.404 24.452C207.78 23.428 207.468 22.268 207.468 20.972C207.468 19.676 207.772 18.524 208.38 17.516C209.004 16.492 209.86 15.7 210.948 15.14C212.036 14.564 213.26 14.276 214.62 14.276C215.9 14.276 217.068 14.54 218.124 15.068C219.18 15.58 220.02 16.34 220.644 17.348C221.268 18.356 221.58 19.58 221.58 21.02C221.58 21.18 221.572 21.364 221.556 21.572C221.54 21.78 221.524 21.972 221.508 22.148H211.212V19.748H219.084L217.356 20.42C217.372 19.828 217.26 19.316 217.02 18.884C216.796 18.452 216.476 18.116 216.06 17.876C215.66 17.636 215.188 17.516 214.644 17.516C214.1 17.516 213.62 17.636 213.204 17.876C212.804 18.116 212.492 18.46 212.268 18.908C212.044 19.34 211.932 19.852 211.932 20.444V21.14C211.932 21.78 212.06 22.332 212.316 22.796C212.588 23.26 212.972 23.62 213.468 23.876C213.964 24.116 214.556 24.236 215.244 24.236C215.884 24.236 216.428 24.148 216.876 23.972C217.34 23.78 217.796 23.492 218.244 23.108L220.644 25.604C220.02 26.292 219.252 26.82 218.34 27.188C217.428 27.54 216.348 27.716 215.1 27.716Z" fill="url(#paint5_linear_809_3190)" fill-opacity="0.4"/>
</g>
<g filter="url(#filter4_d_809_3190)">
<path fill-rule="evenodd" clip-rule="evenodd" d="M50.8892 10.5004C50.8733 10.5001 50.8574 10.5 50.8414 10.5C49.3239 10.5 48.0938 11.7301 48.0938 13.2475L48.0938 13.3171C48.0938 13.3249 48.0938 13.3327 48.0938 13.3405C48.0938 13.3483 48.0938 13.3561 48.0938 13.3639L48.0938 25.7433C48.0938 27.2607 49.3239 28.4908 50.8414 28.4908C52.3588 28.4908 53.5889 27.2607 53.5889 25.7433V20.3912L61.4721 27.7433C62.6154 28.8097 64.3999 28.7409 65.4578 27.5898C66.5157 26.4386 66.4464 24.641 65.3031 23.5747L57.3753 16.1809H61.7949C63.3636 16.1809 64.6353 14.9092 64.6353 13.3405C64.6353 11.7718 63.3636 10.5001 61.7949 10.5001L50.9342 10.5001C50.9192 10.5001 50.9042 10.5002 50.8892 10.5004Z" fill="white"/>
</g>
<g filter="url(#filter5_d_809_3190)">
<path fill-rule="evenodd" clip-rule="evenodd" d="M137.844 10.5C136.325 10.5 135.094 11.7312 135.094 13.25V25.75C135.094 27.2688 136.325 28.5 137.844 28.5C139.363 28.5 140.594 27.2688 140.594 25.75V19.8892L144.877 24.1725C145.435 24.73 146.172 24.9981 146.902 24.9768C147.633 24.9981 148.37 24.73 148.927 24.1725L153.211 19.8892V25.75C153.211 27.2688 154.442 28.5 155.961 28.5C157.479 28.5 158.711 27.2688 158.711 25.75V13.25C158.711 11.7312 157.479 10.5 155.961 10.5C155.166 10.5 154.45 10.8373 153.948 11.3766C153.924 11.3987 153.9 11.4214 153.877 11.4446L146.902 18.4195L139.927 11.4446C139.904 11.4214 139.881 11.3987 139.857 11.3766C139.355 10.8373 138.639 10.5 137.844 10.5Z" fill="white"/>
</g>
<defs>
<filter id="filter0_bdi_809_3190" x="4.45996" y="-0.0865479" width="45.54" height="45.5865" filterUnits="userSpaceOnUse" color-interpolation-filters="sRGB">
<feFlood flood-opacity="0" result="BackgroundImageFix"/>
<feGaussianBlur in="BackgroundImage" stdDeviation="5"/>
<feComposite in2="SourceAlpha" operator="in" result="effect1_backgroundBlur_809_3190"/>
<feColorMatrix in="SourceAlpha" type="matrix" values="0 0 0 0 0 0 0 0 0 0 0 0 0 0 0 0 0 0 127 0" result="hardAlpha"/>
<feOffset/>
<feGaussianBlur stdDeviation="2.5"/>
<feComposite in2="hardAlpha" operator="out"/>
<feColorMatrix type="matrix" values="0 0 0 0 0 0 0 0 0 0 0 0 0 0 0 0 0 0 0.4 0"/>
<feBlend mode="overlay" in2="effect1_backgroundBlur_809_3190" result="effect2_dropShadow_809_3190"/>
<feBlend mode="normal" in="SourceGraphic" in2="effect2_dropShadow_809_3190" result="shape"/>
<feColorMatrix in="SourceAlpha" type="matrix" values="0 0 0 0 0 0 0 0 0 0 0 0 0 0 0 0 0 0 127 0" result="hardAlpha"/>
<feOffset dx="2" dy="2"/>
<feGaussianBlur stdDeviation="1.5"/>
<feComposite in2="hardAlpha" operator="arithmetic" k2="-1" k3="1"/>
<feColorMatrix type="matrix" values="0 0 0 0 1 0 0 0 0 1 0 0 0 0 1 0 0 0 0.3 0"/>
<feBlend mode="normal" in2="shape" result="effect3_innerShadow_809_3190"/>
</filter>
<filter id="filter1_di_809_3190" x="0.558105" y="0.332031" width="53.1294" height="52.863" filterUnits="userSpaceOnUse" color-interpolation-filters="sRGB">
<feFlood flood-opacity="0" result="BackgroundImageFix"/>
<feColorMatrix in="SourceAlpha" type="matrix" values="0 0 0 0 0 0 0 0 0 0 0 0 0 0 0 0 0 0 127 0" result="hardAlpha"/>
<feOffset dy="4"/>
<feGaussianBlur stdDeviation="10"/>
<feComposite in2="hardAlpha" operator="out"/>
<feColorMatrix type="matrix" values="0 0 0 0 0 0 0 0 0 0 0 0 0 0 0 0 0 0 0.2 0"/>
<feBlend mode="multiply" in2="BackgroundImageFix" result="effect1_dropShadow_809_3190"/>
<feBlend mode="normal" in="SourceGraphic" in2="effect1_dropShadow_809_3190" result="shape"/>
<feColorMatrix in="SourceAlpha" type="matrix" values="0 0 0 0 0 0 0 0 0 0 0 0 0 0 0 0 0 0 127 0" result="hardAlpha"/>
<feOffset dy="2"/>
<feGaussianBlur stdDeviation="2"/>
<feComposite in2="hardAlpha" operator="arithmetic" k2="-1" k3="1"/>
<feColorMatrix type="matrix" values="0 0 0 0 1 0 0 0 0 1 0 0 0 0 1 0 0 0 0.4 0"/>
<feBlend mode="normal" in2="shape" result="effect2_innerShadow_809_3190"/>
</filter>
<filter id="filter2_di_809_3190" x="63.814" y="12.276" width="68.6196" height="26.096" filterUnits="userSpaceOnUse" color-interpolation-filters="sRGB">
<feFlood flood-opacity="0" result="BackgroundImageFix"/>
<feColorMatrix in="SourceAlpha" type="matrix" values="0 0 0 0 0 0 0 0 0 0 0 0 0 0 0 0 0 0 127 0" result="hardAlpha"/>
<feOffset dy="2"/>
<feGaussianBlur stdDeviation="2"/>
<feComposite in2="hardAlpha" operator="out"/>
<feColorMatrix type="matrix" values="0 0 0 0 0 0 0 0 0 0 0 0 0 0 0 0 0 0 0.2 0"/>
<feBlend mode="multiply" in2="BackgroundImageFix" result="effect1_dropShadow_809_3190"/>
<feBlend mode="normal" in="SourceGraphic" in2="effect1_dropShadow_809_3190" result="shape"/>
<feColorMatrix in="SourceAlpha" type="matrix" values="0 0 0 0 0 0 0 0 0 0 0 0 0 0 0 0 0 0 127 0" result="hardAlpha"/>
<feOffset dx="1" dy="1"/>
<feGaussianBlur stdDeviation="1"/>
<feComposite in2="hardAlpha" operator="arithmetic" k2="-1" k3="1"/>
<feColorMatrix type="matrix" values="0 0 0 0 1 0 0 0 0 1 0 0 0 0 1 0 0 0 0.4 0"/>
<feBlend mode="normal" in2="shape" result="effect2_innerShadow_809_3190"/>
</filter>
<filter id="filter3_di_809_3190" x="157.742" y="12.276" width="67.8386" height="21.44" filterUnits="userSpaceOnUse" color-interpolation-filters="sRGB">
<feFlood flood-opacity="0" result="BackgroundImageFix"/>
<feColorMatrix in="SourceAlpha" type="matrix" values="0 0 0 0 0 0 0 0 0 0 0 0 0 0 0 0 0 0 127 0" result="hardAlpha"/>
<feOffset dy="2"/>
<feGaussianBlur stdDeviation="2"/>
<feComposite in2="hardAlpha" operator="out"/>
<feColorMatrix type="matrix" values="0 0 0 0 0 0 0 0 0 0 0 0 0 0 0 0 0 0 0.2 0"/>
<feBlend mode="multiply" in2="BackgroundImageFix" result="effect1_dropShadow_809_3190"/>
<feBlend mode="normal" in="SourceGraphic" in2="effect1_dropShadow_809_3190" result="shape"/>
<feColorMatrix in="SourceAlpha" type="matrix" values="0 0 0 0 0 0 0 0 0 0 0 0 0 0 0 0 0 0 127 0" result="hardAlpha"/>
<feOffset dx="1" dy="1"/>
<feGaussianBlur stdDeviation="1"/>
<feComposite in2="hardAlpha" operator="arithmetic" k2="-1" k3="1"/>
<feColorMatrix type="matrix" values="0 0 0 0 1 0 0 0 0 1 0 0 0 0 1 0 0 0 0.4 0"/>
<feBlend mode="normal" in2="shape" result="effect2_innerShadow_809_3190"/>
</filter>
<filter id="filter4_d_809_3190" x="44.0938" y="8.5" width="26.1143" height="26.0002" filterUnits="userSpaceOnUse" color-interpolation-filters="sRGB">
<feFlood flood-opacity="0" result="BackgroundImageFix"/>
<feColorMatrix in="SourceAlpha" type="matrix" values="0 0 0 0 0 0 0 0 0 0 0 0 0 0 0 0 0 0 127 0" result="hardAlpha"/>
<feOffset dy="2"/>
<feGaussianBlur stdDeviation="2"/>
<feComposite in2="hardAlpha" operator="out"/>
<feColorMatrix type="matrix" values="0 0 0 0 0 0 0 0 0 0 0 0 0 0 0 0 0 0 0.2 0"/>
<feBlend mode="normal" in2="BackgroundImageFix" result="effect1_dropShadow_809_3190"/>
<feBlend mode="normal" in="SourceGraphic" in2="effect1_dropShadow_809_3190" result="shape"/>
</filter>
<filter id="filter5_d_809_3190" x="131.094" y="8.5" width="31.6172" height="26" filterUnits="userSpaceOnUse" color-interpolation-filters="sRGB">
<feFlood flood-opacity="0" result="BackgroundImageFix"/>
<feColorMatrix in="SourceAlpha" type="matrix" values="0 0 0 0 0 0 0 0 0 0 0 0 0 0 0 0 0 0 127 0" result="hardAlpha"/>
<feOffset dy="2"/>
<feGaussianBlur stdDeviation="2"/>
<feComposite in2="hardAlpha" operator="out"/>
<feColorMatrix type="matrix" values="0 0 0 0 0 0 0 0 0 0 0 0 0 0 0 0 0 0 0.2 0"/>
<feBlend mode="normal" in2="BackgroundImageFix" result="effect1_dropShadow_809_3190"/>
<feBlend mode="normal" in="SourceGraphic" in2="effect1_dropShadow_809_3190" result="shape"/>
</filter>
<linearGradient id="paint0_linear_809_3190" x1="26.9708" y1="0.879112" x2="0.317241" y2="27.2436" gradientUnits="userSpaceOnUse">
<stop stop-color="#E0FF87"/>
<stop offset="1" stop-color="#0075D1"/>
</linearGradient>
<linearGradient id="paint1_linear_809_3190" x1="-1.02767" y1="-1.50658" x2="5.66288" y2="7.95131" gradientUnits="userSpaceOnUse">
<stop stop-color="#7746FF"/>
<stop offset="1" stop-color="#34A6E7"/>
</linearGradient>
<linearGradient id="paint2_linear_809_3190" x1="17.014" y1="12.2589" x2="40.0422" y2="35.4581" gradientUnits="userSpaceOnUse">
<stop stop-color="white"/>
<stop offset="1" stop-color="white" stop-opacity="0"/>
</linearGradient>
<linearGradient id="paint3_linear_809_3190" x1="31.2446" y1="14.3886" x2="21.7615" y2="25.4402" gradientUnits="userSpaceOnUse">
<stop stop-color="white" stop-opacity="0.6"/>
<stop offset="1" stop-color="white" stop-opacity="0"/>
</linearGradient>
<linearGradient id="paint4_linear_809_3190" x1="69.5937" y1="6" x2="126.094" y2="31" gradientUnits="userSpaceOnUse">
<stop stop-color="white"/>
<stop offset="1" stop-color="white" stop-opacity="0"/>
</linearGradient>
<linearGradient id="paint5_linear_809_3190" x1="163.594" y1="6" x2="220.094" y2="31" gradientUnits="userSpaceOnUse">
<stop stop-color="white"/>
<stop offset="1" stop-color="white" stop-opacity="0"/>
</linearGradient>
</defs>
</svg>
