<svg width="47" height="49" viewBox="0 0 47 49" fill="none" xmlns="http://www.w3.org/2000/svg">
<rect width="30.7135" height="31.7493" rx="10" transform="matrix(0.96336 0.268211 -0.24971 0.968321 15.928 1)" fill="#404B5A"/>
<g filter="url(#filter0_d_677_13044)">
<g filter="url(#filter1_b_677_13044)">
<rect x="4.99994" y="10" width="30.632" height="31.828" rx="10" fill="url(#paint0_linear_677_13044)" fill-opacity="0.4"/>
<rect x="5.24994" y="10.25" width="30.132" height="31.328" rx="9.75" stroke="white" stroke-opacity="0.2" stroke-width="0.5"/>
<rect x="5.24994" y="10.25" width="30.132" height="31.328" rx="9.75" stroke="url(#paint1_linear_677_13044)" stroke-opacity="0.2" stroke-width="0.5"/>
</g>
<g filter="url(#filter2_d_677_13044)">
<path fill-rule="evenodd" clip-rule="evenodd" d="M19.9814 23.2445C22.0437 23.2445 23.7156 21.6228 23.7156 19.6223C23.7156 17.6218 22.0437 16.0001 19.9814 16.0001C17.919 16.0001 16.2471 17.6218 16.2471 19.6223C16.2471 21.6228 17.919 23.2445 19.9814 23.2445ZM19.9814 35.0562C23.8371 35.0562 26.9628 35.0166 26.9628 31.2765C26.9628 27.5365 23.8371 24.5046 19.9814 24.5046C16.1256 24.5046 12.9999 27.5365 12.9999 31.2765C12.9999 35.0166 16.1256 35.0562 19.9814 35.0562Z" fill="url(#paint2_linear_677_13044)" fill-opacity="0.8" shape-rendering="crispEdges"/>
</g>
</g>
<defs>
<filter id="filter0_d_677_13044" x="-6.10352e-05" y="5" width="40.632" height="41.828" filterUnits="userSpaceOnUse" color-interpolation-filters="sRGB">
<feFlood flood-opacity="0" result="BackgroundImageFix"/>
<feColorMatrix in="SourceAlpha" type="matrix" values="0 0 0 0 0 0 0 0 0 0 0 0 0 0 0 0 0 0 127 0" result="hardAlpha"/>
<feOffset/>
<feGaussianBlur stdDeviation="2.5"/>
<feComposite in2="hardAlpha" operator="out"/>
<feColorMatrix type="matrix" values="0 0 0 0 0 0 0 0 0 0 0 0 0 0 0 0 0 0 0.25 0"/>
<feBlend mode="normal" in2="BackgroundImageFix" result="effect1_dropShadow_677_13044"/>
<feBlend mode="normal" in="SourceGraphic" in2="effect1_dropShadow_677_13044" result="shape"/>
</filter>
<filter id="filter1_b_677_13044" x="-7.00006" y="-2" width="54.632" height="55.828" filterUnits="userSpaceOnUse" color-interpolation-filters="sRGB">
<feFlood flood-opacity="0" result="BackgroundImageFix"/>
<feGaussianBlur in="BackgroundImage" stdDeviation="6"/>
<feComposite in2="SourceAlpha" operator="in" result="effect1_backgroundBlur_677_13044"/>
<feBlend mode="normal" in="SourceGraphic" in2="effect1_backgroundBlur_677_13044" result="shape"/>
</filter>
<filter id="filter2_d_677_13044" x="2.99994" y="9.00006" width="33.9629" height="39.0562" filterUnits="userSpaceOnUse" color-interpolation-filters="sRGB">
<feFlood flood-opacity="0" result="BackgroundImageFix"/>
<feColorMatrix in="SourceAlpha" type="matrix" values="0 0 0 0 0 0 0 0 0 0 0 0 0 0 0 0 0 0 127 0" result="hardAlpha"/>
<feOffset dy="3"/>
<feGaussianBlur stdDeviation="5"/>
<feComposite in2="hardAlpha" operator="out"/>
<feColorMatrix type="matrix" values="0 0 0 0 0.0807292 0 0 0 0 0.100463 0 0 0 0 0.129167 0 0 0 0.4 0"/>
<feBlend mode="normal" in2="BackgroundImageFix" result="effect1_dropShadow_677_13044"/>
<feBlend mode="normal" in="SourceGraphic" in2="effect1_dropShadow_677_13044" result="shape"/>
</filter>
<linearGradient id="paint0_linear_677_13044" x1="20.3159" y1="10" x2="20.3159" y2="41.828" gradientUnits="userSpaceOnUse">
<stop stop-color="white" stop-opacity="0.6"/>
<stop offset="1" stop-color="white" stop-opacity="0.1"/>
</linearGradient>
<linearGradient id="paint1_linear_677_13044" x1="8.49994" y1="42" x2="35.9999" y2="12" gradientUnits="userSpaceOnUse">
<stop stop-color="white"/>
<stop offset="1" stop-color="white" stop-opacity="0"/>
</linearGradient>
<linearGradient id="paint2_linear_677_13044" x1="22.8903" y1="16.7525" x2="14.5844" y2="34.2585" gradientUnits="userSpaceOnUse">
<stop stop-color="white"/>
<stop offset="1" stop-color="white" stop-opacity="0.2"/>
</linearGradient>
</defs>
</svg>
