<svg width="24" height="24" viewBox="0 0 24 24" fill="none" xmlns="http://www.w3.org/2000/svg">
<path d="M5.63648 18.3644L6.16682 17.8341L5.63649 18.3644C5.92558 18.6535 6.28209 18.6519 6.4628 18.6342C6.62275 18.6186 6.80759 18.5722 6.95839 18.5344C6.96923 18.5317 6.97989 18.529 6.99036 18.5264L9.4963 17.8999C9.51354 17.8956 9.53091 17.8913 9.54838 17.8869C9.76244 17.8339 9.9926 17.7768 10.2028 17.6578C10.413 17.5388 10.5804 17.3708 10.736 17.2145C10.7487 17.2018 10.7613 17.1891 10.7739 17.1765L17.6346 10.3158L17.6662 10.2842C17.9723 9.97819 18.2529 9.69762 18.4505 9.43867C18.6681 9.15351 18.8542 8.80832 18.8542 8.37129C18.8542 7.93427 18.6681 7.58908 18.4505 7.30392C18.2529 7.04497 17.9723 6.76441 17.6662 6.45841L17.6346 6.42675L17.1042 6.95708L17.6346 6.42675L17.5741 6.3663L17.5425 6.33467C17.2365 6.02859 16.9559 5.74795 16.6969 5.55037C16.4118 5.3328 16.0666 5.14664 15.6296 5.14664C15.1926 5.14664 14.8474 5.3328 14.5622 5.55037C14.3032 5.74795 14.0227 6.02859 13.7167 6.33468C13.7061 6.34519 13.6956 6.35573 13.685 6.36631L6.82434 13.227C6.81178 13.2396 6.79911 13.2522 6.78636 13.2649C6.6301 13.4205 6.46209 13.5879 6.34307 13.7981C6.22406 14.0083 6.167 14.2384 6.11394 14.4525C6.10961 14.47 6.1053 14.4873 6.10099 14.5046L5.47451 17.0105C5.47189 17.021 5.46921 17.0316 5.4665 17.0425C5.42867 17.1933 5.38229 17.3781 5.36665 17.5381C5.34897 17.7188 5.34739 18.0753 5.63648 18.3644Z" stroke="#A1ABB5" stroke-width="1.5"/>
<path d="M13.2236 6.92592L16.1125 5L19.0014 7.88887L17.0755 10.7777L13.2236 6.92592Z" fill="#A1ABB5"/>
</svg>
